#!OML:ASF E:\Mandelcareful walks\Project 1\Capture day 1\Session 1\Subject1.ASF
:FULLY-SPECIFIED
:DEGREES
988
root -2.99671 14.8065 -0.655283 21.6681 40.667 7.71549
lowerback 37.5585 -1.66715 -4.72324
upperback 6.68687 -2.60829 6.08754
thorax -10.8878 -0.896513 10.2075
lowerneck -14.834 -14.9486 -15.1837
upperneck 28.2052 -24.4297 21.7089
head 18.3167 -9.58934 6.67198
rclavicle 1.82882e-014 -7.15625e-015
rhumerus -2.22288 3.90395 -78.9252
rradius 51.6539
rwrist -14.3866
rhand -17.1445 -24.4207
rfingers 7.12502
rthumb 9.09594 -54.2046
lclavicle 1.82882e-014 -7.15625e-015
lhumerus -2.62438 -23.1806 82.0033
lradius 55.7828
lwrist 23.2034
lhand -26.2147 -13.1538
lfingers 7.12502
lthumb 0.338407 16.8257
rfemur -62.834 5.32463 4.78555
rtibia 67.4451
rfoot -17.3027 19.247
rtoes 15.6963
lfemur -38.115 52.7168 -20.7422
ltibia 66.2458
lfoot -29.4478 22.9762
ltoes -14.096
989
root -2.97581 14.8077 -0.663782 21.519 40.3294 7.61235
lowerback 37.7816 -1.84713 -4.23955
upperback 6.71175 -2.67295 5.92348
thorax -10.8204 -0.94556 9.78937
lowerneck -14.9767 -14.9156 -14.8167
upperneck 28.2887 -24.4989 21.7319
head 18.3606 -9.56269 6.60337
rclavicle 7.71285e-014 -3.02153e-014
rhumerus -2.13033 3.27438 -79.2235
rradius 51.5433
rwrist -14.0635
rhand -17.6738 -25.198
rfingers 7.12502
rthumb 8.58514 -55.0035
lclavicle 7.71285e-014 -3.02153e-014
lhumerus -2.06328 -23.4648 81.3781
lradius 55.7302
lwrist 23.178
lhand -26.4419 -13.2425
lfingers 7.12502
lthumb 0.118897 16.7373
rfemur -62.78 5.34083 4.82056
rtibia 67.3908
rfoot -17.188 19.5474
rtoes 15.686
lfemur -37.8727 52.9538 -20.6913
ltibia 66.2468
lfoot -29.417 23.1295
ltoes -14.4596
990
root -2.95911 14.8012 -0.670009 21.703 39.8585 7.53524
lowerback 37.4433 -1.83051 -4.28147
upperback 6.87652 -2.65226 6.01809
thorax -10.6415 -0.94734 9.88827
lowerneck -15.1448 -14.8835 -14.5277
upperneck 28.4129 -24.4483 21.4765
head 18.334 -9.51548 6.44746
rclavicle -3.26007e-014 3.97569e-014
rhumerus -1.9341 2.80866 -79.245
rradius 51.1811
rwrist -13.7126
rhand -18.0788 -25.2398
rfingers 7.12502
rthumb 8.19426 -55.0609
lclavicle -3.26007e-014 3.97569e-014
lhumerus -1.67943 -23.4543 81.1938
lradius 55.7264
lwrist 23.1643
lhand -27.1694 -13.2113
lfingers 7.12502
lthumb -0.583733 16.7677
rfemur -63.1958 5.42676 4.737
rtibia 67.4372
rfoot -17.093 19.8544
rtoes 15.6658
lfemur -38.2025 53.3415 -21.075
ltibia 66.343
lfoot -29.3151 23.1886
ltoes -14.6192
991
root -2.94457 14.7936 -0.67891 21.9701 39.4339 7.60887
lowerback 37.3034 -1.91337 -4.4537
upperback 6.92816 -2.8126 6.08448
thorax -10.4961 -1.02692 10.1134
lowerneck -15.4507 -14.767 -14.3383
upperneck 28.6635 -24.2859 21.2645
head 18.4147 -9.41713 6.36902
rclavicle -2.38542e-014 -1.03368e-014
rhumerus -1.76651 2.85887 -79.2579
rradius 51.0295
rwrist -13.76
rhand -18.3924 -25.5789
rfingers 7.12502
rthumb 7.89159 -55.4116
lclavicle -2.38542e-014 -1.03368e-014
lhumerus -1.40444 -22.8725 81.0536
lradius 55.6732
lwrist 23.1387
lhand -27.3671 -13.3362
lfingers 7.12502
lthumb -0.77468 16.6421
rfemur -63.609 5.41972 4.53934
rtibia 67.5043
rfoot -16.9245 20.1735
rtoes 15.9167
lfemur -38.58 53.5578 -21.6034
ltibia 66.4396
lfoot -29.3728 23.3635
ltoes -14.6221
992
root -2.9231 14.7936 -0.686072 21.9889 39.048 7.66794
lowerback 37.3932 -2.07008 -4.22058
upperback 6.96671 -2.93561 5.97347
thorax -10.4726 -1.09146 9.91126
lowerneck -15.52 -14.7256 -14.2597
upperneck 28.7641 -24.2875 21.3124
head 18.4904 -9.39744 6.38628
rclavicle 6.36111e-015 -9.54166e-015
rhumerus -1.84615 2.78682 -79.2992
rradius 51.1275
rwrist -13.9616
rhand -18.5842 -25.9205
rfingers 7.12502
rthumb 7.70648 -55.7601
lclavicle 6.36111e-015 -9.54166e-015
lhumerus -1.11987 -22.733 80.7289
lradius 55.6369
lwrist 23.1723
lhand -26.9848 -13.6367
lfingers 7.12502
lthumb -0.405414 16.3426
rfemur -63.6735 5.41253 4.38092
rtibia 67.5331
rfoot -16.7506 20.5473
rtoes 16.3981
lfemur -38.4735 53.7133 -21.7928
ltibia 66.497
lfoot -29.6788 23.5145
ltoes -14.685
993
root -2.92019 14.7906 -0.688895 22.1113 38.6324 7.58689
lowerback 37.267 -2.00522 -4.22184
upperback 6.94424 -2.84624 6.0711
thorax -10.4689 -1.05205 9.9828
lowerneck -15.1903 -14.7746 -14.382
upperneck 28.6573 -24.335 21.3435
head 18.3893 -9.457 6.41389
rclavicle 3.26007e-014 2.06736e-014
rhumerus -1.93532 2.47064 -79.1681
rradius 51.0596
rwrist -14.0437
rhand -18.5957 -25.9845
rfingers 7.12502
rthumb 7.69536 -55.8244
lclavicle 3.26007e-014 2.06736e-014
lhumerus -0.910441 -22.9365 80.5413
lradius 55.6873
lwrist 23.3134
lhand -27.2548 -13.5347
lfingers 7.12502
lthumb -0.666136 16.444
rfemur -64.0437 5.46554 4.38432
rtibia 67.5814
rfoot -16.5081 20.8348
rtoes 16.9323
lfemur -38.78 54.0861 -22.0826
ltibia 66.5742
lfoot -29.7362 23.5485
ltoes -14.8007
994
root -2.91462 14.7898 -0.691782 22.2277 38.2568 7.54694
lowerback 37.4429 -1.61781 -5.24949
upperback 6.83354 -2.6316 6.9741
thorax -10.6574 -0.915593 11.501
lowerneck -15.4194 -14.7486 -14.9054
upperneck 29.1405 -23.9202 20.5143
head 18.4702 -9.38086 6.24839
rclavicle -4.13472e-014 2.14687e-014
rhumerus -1.79274 3.01095 -78.0552
rradius 50.8111
rwrist -14.3581
rhand -18.6085 -26.0911
rfingers 7.12502
rthumb 7.68306 -55.9315
lclavicle -4.13472e-014 2.14687e-014
lhumerus -1.03722 -22.1005 81.5136
lradius 55.7122
lwrist 23.2378
lhand -27.557 -13.1257
lfingers 7.12502
lthumb -0.958044 16.8519
rfemur -64.33 5.34746 4.45761
rtibia 67.598
rfoot -16.3572 21.1889
rtoes 16.9746
lfemur -38.9964 54.4045 -22.346
ltibia 66.6
lfoot -29.6413 23.6092
ltoes -15.1693
